# xmcd CD database file
#
# Track frame offsets:
#	150
#	22402
#	38139
#	54871
#	84226
#	102884
#	118318
#	134373
#
# Disc length: 2175 seconds
#
# Revision: 0
# Processed by: cddbd v1.5.2PL0 Copyright (c) Steve Scherf et al.
# Submitted via: CDex 1.70beta2
#
DISCID=66087d08
DTITLE=Divers - Party Creole sur la plage (Disk #2)
DYEAR=2010
DGENRE=Salsa
TTITLE0=Haut les mains
TTITLE1=Ballamos
TTITLE2=Goulou Goulou
TTITLE3=Selena
TTITLE4=La Is La Bonita
TTITLE5=La Bomba sur la plage
TTITLE6=C'est a Capris
TTITLE7=Medley - Ce soir il fera chaud, Mon ile au soleil, Mathilda, Mon paradis, Angelico
EXTD=YEAR: 2010
EXTT0=
EXTT1=
EXTT2=
EXTT3=
EXTT4=
EXTT5=
EXTT6=
EXTT7=
PLAYORDER=
